<?xml version="1.0" ?><svg height="512" viewBox="0 0 512 512" width="512" xmlns="http://www.w3.org/2000/svg"><defs><style>
      .cls-1 {
        fill: #fbae17;
      }

      .cls-2 {
        fill: none;
        stroke: #000;
        stroke-linecap: round;
        stroke-linejoin: round;
        stroke-width: 3px;
      }

      .cls-3 {
        fill: #fefefe;
      }
    </style></defs><title/><g data-name="Set v 2" id="Set_v_2"><circle class="cls-1" cx="256" cy="257.43" r="190.73"/><circle class="cls-2" cx="256" cy="257.43" r="190.73"/><g><path class="cls-2" d="M344.92,408q-5.91,3.5-12.11,6.54"/><path class="cls-2" d="M411.25,337.85a175.52,175.52,0,0,1-59.52,65.87"/><path class="cls-2" d="M419.72,318.83q-2.3,6.14-5,12"/><path class="cls-2" d="M403.71,163.91q4.19,6.59,7.79,13.57"/><path class="cls-2" d="M357.61,115.17a175.84,175.84,0,0,1,39.17,38.61"/><path class="cls-2" d="M341.6,105c3.32,1.87,6.59,3.85,9.77,5.93"/><path class="cls-2" d="M194.37,93.8a173.46,173.46,0,0,1,18.82-5.9"/><path class="cls-2" d="M109.31,162.31A175.55,175.55,0,0,1,182.25,98.9"/><path class="cls-2" d="M94.93,189.39a173.16,173.16,0,0,1,7.68-15.87"/><path class="cls-2" d="M106.28,347.72q-3.78-6.27-7-12.86"/><path class="cls-2" d="M159.92,403.5a175.75,175.75,0,0,1-49-48.52"/><path class="cls-2" d="M182.59,416.13q-6.24-2.89-12.2-6.25"/></g><g><g><path class="cls-1" d="M427.9,259.47c-2.12,4.6-6,7.67-9.48,11.12q-77,77-154,154c-6.28,6.29-11.32,6.28-17.64,0q-34-34-68-68c-6.19-6.18-6.21-11.24-.08-17.37L338.05,179.81c5.7-5.7,11-5.8,16.63-.16q34.65,34.59,69.26,69.2a22.16,22.16,0,0,1,4,5.81ZM251,307.09c-1.94-2.74-3.24-2-4.61-.35a22.38,22.38,0,0,1-3.65,3.63c-1.88,1.48-1.88,2.55-.09,4.25,4.66,4.4,9.1,9,13.65,13.55,5.73,5.7,5.7,5.65,11.44-.31,1.23-1.28,1.36-2,0-3.24-3.73-3.56-7.31-7.26-10.94-10.92-1.09-1.1-1.56-2.47-.32-3.61,1.08-1,2.36-.51,3.35.48q3.17,3.15,6.32,6.32c6.54,6.54,6.5,6.5,12.72-.19,1.13-1.22,1.18-1.85,0-3-3.71-3.57-7.3-7.26-10.94-10.91-1.07-1.08-1.7-2.43-.53-3.62s2.53-.59,3.61.49c2.35,2.34,4.69,4.7,7,7,5.48,5.49,5.43,5.44,11-.18,1.43-1.44,1.69-2.26.07-3.8-5-4.82-10-9.74-14.8-14.82a5.83,5.83,0,0,0-7.12-1.49,8.5,8.5,0,0,0-5.64,7.88c-.06,1.05.44,2.1-1.53,2.28C253.54,297.17,251.26,299.77,251,307.09Zm-45.12,26.54a12.69,12.69,0,0,0-9.58,3.85c-2.49,2.53-4.9,5.15-7.56,7.49-1.83,1.6-1.41,2.55.1,4,7.76,7.63,15.4,15.37,23.11,23.05,1.86,1.85,3.76,5,5.73,5.05,2.32.09,3.94-3.37,5.94-5.2,3.39-3.11,6.63-6.29,7-11.34C231.58,348.15,218.31,333.66,205.84,333.63Zm53.22,53.05a14.79,14.79,0,0,0-8.42-13.5c-5.57-2.55-11-2.07-15.75,1.81-3,2.44-5.5,5.47-8.41,8-1.69,1.5-1.32,2.36.11,3.76,7.73,7.62,15.33,15.38,23.07,23,2.25,2.21,4.24,6.31,6.9,6s4.57-4.1,7-6.14c1.79-1.51,1.24-2.46-.17-3.76-2.5-2.34-4.82-4.87-7.32-7.22-1-1-1.17-1.61-.22-2.78A14.37,14.37,0,0,0,259.06,386.68Zm61.49-72.95c-9.91-.76-11.64,6-9.44,11.81,2.58,6.77,7.3,11.55,14.29,13.73s10.83-.83,11.12-7.95c0-.25.27-.49.55-1,2,3.44,3.82,2.45,5.71.05a28.38,28.38,0,0,1,3.86-3.89c1.32-1.15,1.37-1.92,0-3.21-4.86-4.68-9.53-9.54-14.35-14.25-2-2-3.71-5.49-6.21-5.42s-4,3.66-6.23,5.47C318.23,310.48,317.46,311.75,320.55,313.73Zm-25.27-49.41c-2.39-3.85-4.11-2.8-5.86-.66a24.11,24.11,0,0,1-3.15,3.16c-1.4,1.16-1.31,2,0,3.24,4.68,4.54,9.24,9.2,13.86,13.81,6,6,5.93,5.94,11.74-.16,1.33-1.4,1.08-2.11-.12-3.27-3.54-3.42-6.95-7-10.46-10.42-1.17-1.14-2.13-2.51-.89-3.83,1.45-1.53,2.86-.41,4.07.84,2.07,2.13,4.2,4.2,6.31,6.31,5.86,5.85,5.82,5.81,11.49,0,1.32-1.37,1.45-2.16,0-3.53-4.22-4-8.33-8.18-12.4-12.37-2.66-2.74-5.6-4.43-9.46-3S295.05,259.09,295.28,264.32Zm-41.93,72.75c0-7.48-6.72-15.4-14.42-17.13-9.4-2.1-17.19,6-14.56,15.25a18.93,18.93,0,0,0,13.09,13.37A12,12,0,0,0,253.35,337.07ZM322.7,233.2a12,12,0,0,0-12.41,12.19c.09,7.52,6.91,15.3,14.95,17.06A12.15,12.15,0,0,0,339.87,250C339.41,241.7,330.93,233.43,322.7,233.2ZM308.54,364.66c5.56-5.59,10.56-10.76,15.75-15.74,1.68-1.61,1.47-2.44-.07-4-4.59-4.51-4.59-4.66-9-.26-1.83,1.85-2.58,1.82-3.48-.74-2.23-6.41-4.69-12.74-7.25-19.59-5.33,5.37-10.28,10.43-15.31,15.4-1.21,1.19-.91,2,0,3.14,4,5.12,4,5.15,8.53.72a2.83,2.83,0,0,0,.24-.25c1.54-2,2.43-1.82,3.27.67C303.5,350.75,306,357.38,308.54,364.66Zm-19.42,19.23c5.46-5.43,10.62-10.62,15.86-15.73,1-1,1.07-1.6,0-2.73-4.9-5.45-4.93-5.56-9.76-.75-1.81,1.82-2.49,1.62-3.32-.73-2.27-6.45-4.72-12.83-7.28-19.73-5.36,5.4-10.43,10.51-15.5,15.6-.59.59-1.23,1.2-.42,2,1.71,1.68,3.21,3.93,5.28,4.75,1.43.56,2.78-2,3.94-3.27,2.09-2.34,2.72-1.45,3.6,1C283.93,370.8,286.53,377.22,289.12,383.89Zm48-166.45a16.76,16.76,0,0,0,.43,2.4c1.83,6,6.44,7.76,13,5.14,2.12-.85,5.13-2.61,6.44.05,1.21,2.43-2.07,3.27-3.86,4.19a2.23,2.23,0,0,0-1.42,2.92c1.14,5.23,1.81,5.62,6.67,3.18a23.07,23.07,0,0,0,4.59-3c4.23-3.59,5.17-9.11,2.4-13.2s-8-5.36-13-3c-1.94.92-4.64,2.47-5.76.05-1-2.18,2.08-3,3.72-4.09.87-.58,2.42-.59,1.89-2.27-.58-1.85-1.27-3.67-1.86-5.52-.26-.84-.66-.89-1.5-.75C343.09,204.58,337.11,211.27,337.13,217.44Zm-50.53,169c-.11-1-.85-1.38-1.39-1.93q-7.15-7.18-14.33-14.35c-6.22-6.22-6.17-6.17-12.26.17-1.37,1.43-1.33,2.19.06,3.55,6.14,6,12.24,12.06,18.2,18.24,1.68,1.74,2.73,1.79,4.24-.06,1.3-1.59,2.89-2.94,4.35-4.4C285.87,387.27,286.24,386.83,286.6,386.45Zm-5.46-114.29c-.52.45-1,.8-1.37,1.2-1.62,1.6-3.15,3.32-4.88,4.79-1.5,1.29-1.4,2.09,0,3.44,4.53,4.34,8.9,8.85,13.35,13.29,6.52,6.51,6.48,6.47,12.67-.23,1.13-1.23,1.14-1.88,0-3-6.1-6-12.13-12.09-18.2-18.13C282.23,273,281.69,272.63,281.14,272.16Zm46.64-66.64c-2.48,2.65-4.45,4.88-6.56,7-1.05,1-.94,1.78-.21,2.91,2.86,4.4,5.63,8.87,8.45,13.3.34.54.54,1.36,1.31,1.37,1.51,0,5.39-5.59,4.79-7C333.1,217.45,330.58,211.83,327.78,205.52Zm-66.94,156a6.48,6.48,0,1,0-13,.18,6.48,6.48,0,0,0,13-.18Zm15.08-93.3a6.63,6.63,0,0,0-6.44-6.62,6.71,6.71,0,0,0-6.51,6.24,6.48,6.48,0,1,0,12.95.38Z"/><path class="cls-3" d="M258.79,85.55a23.64,23.64,0,0,1,7.06,5.23q33.82,33.93,67.74,67.77c5.82,5.82,5.81,11.07,0,16.87q-36.06,36.08-72.09,72.17c-1.73,1.74-2.63,2.2-4.66.16Q216.56,207.19,176,166.86c-1.9-1.89-2.28-2.82-.14-5Q211.11,127,246.08,91.78a30,30,0,0,1,7.9-6.23Zm18,81.14a19.68,19.68,0,0,0-19.55-20,19.93,19.93,0,1,0,19.55,20Z"/><path class="cls-3" d="M165.48,339.24a9.86,9.86,0,0,1-7.06-3.05Q122.83,300.59,87.27,265c-4.56-4.57-4.11-10.21.81-15.14q36.06-36.09,72.13-72.16c1.94-1.95,4.06-3.75,5.8-5.86s2.69-1.82,4.49,0q28,28.17,56.09,56.17c8.42,8.42,16.8,16.89,25.3,25.23,1.61,1.59,1.59,2.43,0,4q-39.31,39.15-78.51,78.44A10.7,10.7,0,0,1,165.48,339.24Zm31.29-61.08a19.78,19.78,0,0,0,20.09-19.62,19.94,19.94,0,1,0-39.87-.33A19.82,19.82,0,0,0,196.77,278.16Zm-62-40.17a19.64,19.64,0,0,0-19.89,19.76,19.93,19.93,0,0,0,19.68,20.09,20.15,20.15,0,0,0,20.17-20A19.91,19.91,0,0,0,134.77,238Z"/><path class="cls-3" d="M251,307.09c.3-7.32,2.58-9.92,9-10.51,2-.18,1.47-1.23,1.53-2.28a8.5,8.5,0,0,1,5.64-7.88,5.83,5.83,0,0,1,7.12,1.49c4.78,5.08,9.76,10,14.8,14.82,1.62,1.54,1.36,2.36-.07,3.8-5.57,5.62-5.52,5.67-11,.18-2.35-2.35-4.69-4.71-7-7-1.08-1.08-2.44-1.68-3.61-.49s-.54,2.54.53,3.62c3.64,3.65,7.23,7.34,10.94,10.91,1.19,1.15,1.14,1.78,0,3-6.22,6.69-6.18,6.73-12.72.19q-3.15-3.17-6.32-6.32c-1-1-2.27-1.47-3.35-.48-1.24,1.14-.77,2.51.32,3.61,3.63,3.66,7.21,7.36,10.94,10.92,1.33,1.27,1.2,2,0,3.24-5.74,6-5.71,6-11.44.31-4.55-4.52-9-9.15-13.65-13.55-1.79-1.7-1.79-2.77.09-4.25a22.38,22.38,0,0,0,3.65-3.63C247.72,305,249,304.35,251,307.09Z"/><path class="cls-3" d="M205.84,333.63c12.47,0,25.74,14.52,24.77,26.93-.4,5.05-3.64,8.23-7,11.34-2,1.83-3.62,5.29-5.94,5.2-2-.08-3.87-3.2-5.73-5.05-7.71-7.68-15.35-15.42-23.11-23.05-1.51-1.48-1.93-2.43-.1-4,2.66-2.34,5.07-5,7.56-7.49A12.69,12.69,0,0,1,205.84,333.63Zm13,24.57c-.47-4.31-2.84-7.57-6.11-10.24a11.59,11.59,0,0,0-7.78-3,3.42,3.42,0,0,0-2.45.9c-.63,1,.61,1.55,1.2,2.15q5.88,6,11.86,11.85c.62.6,1.16,1.81,2.13,1.42C218.88,360.76,218.74,359.37,218.87,358.2Z"/><path class="cls-3" d="M259.06,386.68a14.37,14.37,0,0,1-3.2,9.2c-1,1.17-.8,1.81.22,2.78,2.5,2.35,4.82,4.88,7.32,7.22,1.41,1.3,2,2.25.17,3.76-2.44,2-4.48,5.85-7,6.14s-4.65-3.8-6.9-6c-7.74-7.6-15.34-15.36-23.07-23-1.43-1.4-1.8-2.26-.11-3.76,2.91-2.57,5.42-5.6,8.41-8,4.77-3.88,10.18-4.36,15.75-1.81A14.79,14.79,0,0,1,259.06,386.68Zm-14.63-6.38c-1.68,0-3.54.29-4.18,1.78-.48,1.15,1.34,1.89,2.13,2.8a23.53,23.53,0,0,0,2.91,2.91c1,.82,1.82,2.86,3,2.25,1.65-.85,2-2.94,1.73-4.87A5.23,5.23,0,0,0,244.43,380.3Z"/><path class="cls-3" d="M320.55,313.73c-3.09-2-2.32-3.25-.67-4.62,2.19-1.81,3.77-5.4,6.23-5.47s4.2,3.45,6.21,5.42c4.82,4.71,9.49,9.57,14.35,14.25,1.34,1.29,1.29,2.06,0,3.21a28.38,28.38,0,0,0-3.86,3.89c-1.89,2.4-3.67,3.39-5.71-.05-.28.47-.54.71-.55,1-.29,7.12-4.28,10.08-11.12,7.95s-11.71-7-14.29-13.73C308.91,319.75,310.64,313,320.55,313.73Zm3.46,4.81c-1.64.11-2.09,1-1.62,2.12a12.06,12.06,0,0,0,7.05,7.07,1.55,1.55,0,0,0,1.89-.31,1.93,1.93,0,0,0-.19-2.53c-1.75-1.95-3.59-3.82-5.48-5.63A4.72,4.72,0,0,0,324,318.54Z"/><path class="cls-3" d="M295.28,264.32c-.23-5.23,1.16-8.41,5.15-9.91s6.8.24,9.46,3c4.07,4.19,8.18,8.33,12.4,12.37,1.43,1.37,1.3,2.16,0,3.53-5.67,5.86-5.63,5.9-11.49,0-2.11-2.11-4.24-4.18-6.31-6.31-1.21-1.25-2.62-2.37-4.07-.84-1.24,1.32-.28,2.69.89,3.83,3.51,3.45,6.92,7,10.46,10.42,1.2,1.16,1.45,1.87.12,3.27-5.81,6.1-5.75,6.15-11.74.16-4.62-4.61-9.18-9.27-13.86-13.81-1.31-1.27-1.4-2.08,0-3.24a24.11,24.11,0,0,0,3.15-3.16C291.17,261.52,292.89,260.47,295.28,264.32Z"/><path class="cls-3" d="M253.35,337.07a12,12,0,0,1-15.89,11.49,18.93,18.93,0,0,1-13.09-13.37c-2.63-9.29,5.16-17.35,14.56-15.25C246.63,321.67,253.31,329.59,253.35,337.07Zm-18.79-8.77c-1.85.17-2.42,1.65-1.7,3.32a15.08,15.08,0,0,0,8.79,8.56c1.86.68,2.87-.13,2.87-2.08C244.52,334.92,238.15,328.46,234.56,328.3Z"/><path class="cls-3" d="M322.7,233.2c8.23.23,16.71,8.5,17.17,16.76a12.15,12.15,0,0,1-14.63,12.49c-8-1.76-14.86-9.54-14.95-17.06A12,12,0,0,1,322.7,233.2Zm-3.58,10.09c.15,4.25,6.5,10.62,9.7,10.64,2.12,0,2.4-1.35,2.08-3-.6-3-5.88-8.16-8.93-8.81C320.12,241.71,319.1,242.26,319.12,243.29Z"/><path class="cls-3" d="M308.54,364.66c-2.59-7.28-5-13.91-7.28-20.61-.84-2.49-1.73-2.64-3.27-.67a2.83,2.83,0,0,1-.24.25c-4.52,4.43-4.48,4.4-8.53-.72-.94-1.18-1.24-2,0-3.14,5-5,10-10,15.31-15.4,2.56,6.85,5,13.18,7.25,19.59.9,2.56,1.65,2.59,3.48.74,4.4-4.4,4.4-4.25,9,.26,1.54,1.52,1.75,2.35.07,4C319.1,353.9,314.1,359.07,308.54,364.66Z"/><path class="cls-3" d="M289.12,383.89c-2.59-6.67-5.19-13.09-7.55-19.61-.88-2.42-1.51-3.31-3.6-1-1.16,1.3-2.51,3.83-3.94,3.27-2.07-.82-3.57-3.07-5.28-4.75-.81-.81-.17-1.42.42-2,5.07-5.09,10.14-10.2,15.5-15.6,2.56,6.9,5,13.28,7.28,19.73.83,2.35,1.51,2.55,3.32.73,4.83-4.81,4.86-4.7,9.76.75,1,1.13,1,1.7,0,2.73C299.74,373.27,294.58,378.46,289.12,383.89Z"/><path class="cls-3" d="M337.13,217.44c0-6.17,6-12.86,11.71-13.86.84-.14,1.24-.09,1.5.75.59,1.85,1.28,3.67,1.86,5.52.53,1.68-1,1.69-1.89,2.27-1.64,1.08-4.73,1.91-3.72,4.09,1.12,2.42,3.82.87,5.76-.05,5-2.36,10.2-1.2,13,3s1.83,9.61-2.4,13.2a23.07,23.07,0,0,1-4.59,3c-4.86,2.44-5.53,2.05-6.67-3.18a2.23,2.23,0,0,1,1.42-2.92c1.79-.92,5.07-1.76,3.86-4.19-1.31-2.66-4.32-.9-6.44-.05-6.58,2.62-11.19.89-13-5.14A16.76,16.76,0,0,1,337.13,217.44Z"/><path class="cls-3" d="M286.6,386.45c-.36.38-.73.82-1.13,1.22-1.46,1.46-3.05,2.81-4.35,4.4-1.51,1.85-2.56,1.8-4.24.06-6-6.18-12.06-12.24-18.2-18.24-1.39-1.36-1.43-2.12-.06-3.55,6.09-6.34,6-6.39,12.26-.17q7.17,7.17,14.33,14.35C285.75,385.07,286.49,385.49,286.6,386.45Z"/><path class="cls-3" d="M281.14,272.16c.55.47,1.09.87,1.56,1.34,6.07,6,12.1,12.12,18.2,18.13,1.16,1.14,1.15,1.79,0,3-6.19,6.7-6.15,6.74-12.67.23-4.45-4.44-8.82-8.95-13.35-13.29-1.41-1.35-1.51-2.15,0-3.44,1.73-1.47,3.26-3.19,4.88-4.79C280.18,273,280.62,272.61,281.14,272.16Z"/><path class="cls-3" d="M327.78,205.52c2.8,6.31,5.32,11.93,7.78,17.57.6,1.38-3.28,7-4.79,7-.77,0-1-.83-1.31-1.37-2.82-4.43-5.59-8.9-8.45-13.3-.73-1.13-.84-1.88.21-2.91C323.33,210.4,325.3,208.17,327.78,205.52Z"/><path class="cls-3" d="M260.84,361.57a6.48,6.48,0,1,1-6.56-6.48A6.56,6.56,0,0,1,260.84,361.57Z"/><path class="cls-3" d="M275.92,268.27a6.48,6.48,0,1,1-12.95-.38,6.71,6.71,0,0,1,6.51-6.24A6.63,6.63,0,0,1,275.92,268.27Z"/><path class="cls-1" d="M276.78,166.69a19.89,19.89,0,0,1-20.19,19.84,19.93,19.93,0,1,1,.64-39.86A19.68,19.68,0,0,1,276.78,166.69Z"/><path class="cls-1" d="M196.77,278.16a19.82,19.82,0,0,1-19.78-20,19.94,19.94,0,1,1,39.87.33A19.78,19.78,0,0,1,196.77,278.16Z"/><path class="cls-1" d="M134.77,238a19.91,19.91,0,0,1,20,19.8,20.15,20.15,0,0,1-20.17,20,19.93,19.93,0,0,1-19.68-20.09A19.64,19.64,0,0,1,134.77,238Z"/><path class="cls-1" d="M218.87,358.2c-.13,1.17,0,2.56-1.15,3-1,.39-1.51-.82-2.13-1.42q-6-5.88-11.86-11.85c-.59-.6-1.83-1.19-1.2-2.15a3.42,3.42,0,0,1,2.45-.9,11.59,11.59,0,0,1,7.78,3C216,350.63,218.4,353.89,218.87,358.2Z"/><path class="cls-1" d="M244.43,380.3a5.23,5.23,0,0,1,5.58,4.87c.23,1.93-.08,4-1.73,4.87-1.17.61-2-1.43-3-2.25a23.53,23.53,0,0,1-2.91-2.91c-.79-.91-2.61-1.65-2.13-2.8C240.89,380.59,242.75,380.28,244.43,380.3Z"/><path class="cls-1" d="M324,318.54a4.72,4.72,0,0,1,1.65.72c1.89,1.81,3.73,3.68,5.48,5.63a1.93,1.93,0,0,1,.19,2.53,1.55,1.55,0,0,1-1.89.31,12.06,12.06,0,0,1-7.05-7.07C321.92,319.5,322.37,318.65,324,318.54Z"/><path class="cls-1" d="M234.56,328.3c3.59.16,10,6.62,10,9.8,0,1.95-1,2.76-2.87,2.08a15.08,15.08,0,0,1-8.79-8.56C232.14,330,232.71,328.47,234.56,328.3Z"/><path class="cls-1" d="M319.12,243.29c0-1,1-1.58,2.85-1.19,3,.65,8.33,5.79,8.93,8.81.32,1.67,0,3-2.08,3C325.62,253.91,319.27,247.54,319.12,243.29Z"/></g><g><path class="cls-2" d="M427.9,259.47c-2.12,4.6-6,7.67-9.48,11.12q-77,77-154,154c-6.28,6.29-11.32,6.28-17.64,0q-34-34-68-68c-6.19-6.18-6.21-11.24-.08-17.37L338.05,179.81c5.7-5.7,11-5.8,16.63-.16q34.65,34.59,69.26,69.2a22.16,22.16,0,0,1,4,5.81ZM251,307.09c-1.94-2.74-3.24-2-4.61-.35a22.38,22.38,0,0,1-3.65,3.63c-1.88,1.48-1.88,2.55-.09,4.25,4.66,4.4,9.1,9,13.65,13.55,5.73,5.7,5.7,5.65,11.44-.31,1.23-1.28,1.36-2,0-3.24-3.73-3.56-7.31-7.26-10.94-10.92-1.09-1.1-1.56-2.47-.32-3.61,1.08-1,2.36-.51,3.35.48q3.17,3.15,6.32,6.32c6.54,6.54,6.5,6.5,12.72-.19,1.13-1.22,1.18-1.85,0-3-3.71-3.57-7.3-7.26-10.94-10.91-1.07-1.08-1.7-2.43-.53-3.62s2.53-.59,3.61.49c2.35,2.34,4.69,4.7,7,7,5.48,5.49,5.43,5.44,11-.18,1.43-1.44,1.69-2.26.07-3.8-5-4.82-10-9.74-14.8-14.82a5.83,5.83,0,0,0-7.12-1.49,8.5,8.5,0,0,0-5.64,7.88c-.06,1.05.44,2.1-1.53,2.28C253.54,297.17,251.26,299.77,251,307.09Zm-45.12,26.54a12.69,12.69,0,0,0-9.58,3.85c-2.49,2.53-4.9,5.15-7.56,7.49-1.83,1.6-1.41,2.55.1,4,7.76,7.63,15.4,15.37,23.11,23.05,1.86,1.85,3.76,5,5.73,5.05,2.32.09,3.94-3.37,5.94-5.2,3.39-3.11,6.63-6.29,7-11.34C231.58,348.15,218.31,333.66,205.84,333.63Zm53.22,53.05a14.79,14.79,0,0,0-8.42-13.5c-5.57-2.55-11-2.07-15.75,1.81-3,2.44-5.5,5.47-8.41,8-1.69,1.5-1.32,2.36.11,3.76,7.73,7.62,15.33,15.38,23.07,23,2.25,2.21,4.24,6.31,6.9,6s4.57-4.1,7-6.14c1.79-1.51,1.24-2.46-.17-3.76-2.5-2.34-4.82-4.87-7.32-7.22-1-1-1.17-1.61-.22-2.78A14.37,14.37,0,0,0,259.06,386.68Zm61.49-72.95c-9.91-.76-11.64,6-9.44,11.81,2.58,6.77,7.3,11.55,14.29,13.73s10.83-.83,11.12-7.95c0-.25.27-.49.55-1,2,3.44,3.82,2.45,5.71.05a28.38,28.38,0,0,1,3.86-3.89c1.32-1.15,1.37-1.92,0-3.21-4.86-4.68-9.53-9.54-14.35-14.25-2-2-3.71-5.49-6.21-5.42s-4,3.66-6.23,5.47C318.23,310.48,317.46,311.75,320.55,313.73Zm-25.27-49.41c-2.39-3.85-4.11-2.8-5.86-.66a24.11,24.11,0,0,1-3.15,3.16c-1.4,1.16-1.31,2,0,3.24,4.68,4.54,9.24,9.2,13.86,13.81,6,6,5.93,5.94,11.74-.16,1.33-1.4,1.08-2.11-.12-3.27-3.54-3.42-6.95-7-10.46-10.42-1.17-1.14-2.13-2.51-.89-3.83,1.45-1.53,2.86-.41,4.07.84,2.07,2.13,4.2,4.2,6.31,6.31,5.86,5.85,5.82,5.81,11.49,0,1.32-1.37,1.45-2.16,0-3.53-4.22-4-8.33-8.18-12.4-12.37-2.66-2.74-5.6-4.43-9.46-3S295.05,259.09,295.28,264.32Zm-41.93,72.75c0-7.48-6.72-15.4-14.42-17.13-9.4-2.1-17.19,6-14.56,15.25a18.93,18.93,0,0,0,13.09,13.37A12,12,0,0,0,253.35,337.07ZM322.7,233.2a12,12,0,0,0-12.41,12.19c.09,7.52,6.91,15.3,14.95,17.06A12.15,12.15,0,0,0,339.87,250C339.41,241.7,330.93,233.43,322.7,233.2ZM308.54,364.66c5.56-5.59,10.56-10.76,15.75-15.74,1.68-1.61,1.47-2.44-.07-4-4.59-4.51-4.59-4.66-9-.26-1.83,1.85-2.58,1.82-3.48-.74-2.23-6.41-4.69-12.74-7.25-19.59-5.33,5.37-10.28,10.43-15.31,15.4-1.21,1.19-.91,2,0,3.14,4,5.12,4,5.15,8.53.72a2.83,2.83,0,0,0,.24-.25c1.54-2,2.43-1.82,3.27.67C303.5,350.75,306,357.38,308.54,364.66Zm-19.42,19.23c5.46-5.43,10.62-10.62,15.86-15.73,1-1,1.07-1.6,0-2.73-4.9-5.45-4.93-5.56-9.76-.75-1.81,1.82-2.49,1.62-3.32-.73-2.27-6.45-4.72-12.83-7.28-19.73-5.36,5.4-10.43,10.51-15.5,15.6-.59.59-1.23,1.2-.42,2,1.71,1.68,3.21,3.93,5.28,4.75,1.43.56,2.78-2,3.94-3.27,2.09-2.34,2.72-1.45,3.6,1C283.93,370.8,286.53,377.22,289.12,383.89Zm48-166.45a16.76,16.76,0,0,0,.43,2.4c1.83,6,6.44,7.76,13,5.14,2.12-.85,5.13-2.61,6.44.05,1.21,2.43-2.07,3.27-3.86,4.19a2.23,2.23,0,0,0-1.42,2.92c1.14,5.23,1.81,5.62,6.67,3.18a23.07,23.07,0,0,0,4.59-3c4.23-3.59,5.17-9.11,2.4-13.2s-8-5.36-13-3c-1.94.92-4.64,2.47-5.76.05-1-2.18,2.08-3,3.72-4.09.87-.58,2.42-.59,1.89-2.27-.58-1.85-1.27-3.67-1.86-5.52-.26-.84-.66-.89-1.5-.75C343.09,204.58,337.11,211.27,337.13,217.44Zm-50.53,169c-.11-1-.85-1.38-1.39-1.93q-7.15-7.18-14.33-14.35c-6.22-6.22-6.17-6.17-12.26.17-1.37,1.43-1.33,2.19.06,3.55,6.14,6,12.24,12.06,18.2,18.24,1.68,1.74,2.73,1.79,4.24-.06,1.3-1.59,2.89-2.94,4.35-4.4C285.87,387.27,286.24,386.83,286.6,386.45Zm-5.46-114.29c-.52.45-1,.8-1.37,1.2-1.62,1.6-3.15,3.32-4.88,4.79-1.5,1.29-1.4,2.09,0,3.44,4.53,4.34,8.9,8.85,13.35,13.29,6.52,6.51,6.48,6.47,12.67-.23,1.13-1.23,1.14-1.88,0-3-6.1-6-12.13-12.09-18.2-18.13C282.23,273,281.69,272.63,281.14,272.16Zm46.64-66.64c-2.48,2.65-4.45,4.88-6.56,7-1.05,1-.94,1.78-.21,2.91,2.86,4.4,5.63,8.87,8.45,13.3.34.54.54,1.36,1.31,1.37,1.51,0,5.39-5.59,4.79-7C333.1,217.45,330.58,211.83,327.78,205.52Zm-66.94,156a6.48,6.48,0,1,0-13,.18,6.48,6.48,0,0,0,13-.18Zm15.08-93.3a6.63,6.63,0,0,0-6.44-6.62,6.71,6.71,0,0,0-6.51,6.24,6.48,6.48,0,1,0,12.95.38Z"/><path class="cls-2" d="M258.79,85.55a23.64,23.64,0,0,1,7.06,5.23q33.82,33.93,67.74,67.77c5.82,5.82,5.81,11.07,0,16.87q-36.06,36.08-72.09,72.17c-1.73,1.74-2.63,2.2-4.66.16Q216.56,207.19,176,166.86c-1.9-1.89-2.28-2.82-.14-5Q211.11,127,246.08,91.78a30,30,0,0,1,7.9-6.23Zm18,81.14a19.68,19.68,0,0,0-19.55-20,19.93,19.93,0,1,0,19.55,20Z"/><path class="cls-2" d="M165.48,339.24a9.86,9.86,0,0,1-7.06-3.05Q122.83,300.59,87.27,265c-4.56-4.57-4.11-10.21.81-15.14q36.06-36.09,72.13-72.16c1.94-1.95,4.06-3.75,5.8-5.86s2.69-1.82,4.49,0q28,28.17,56.09,56.17c8.42,8.42,16.8,16.89,25.3,25.23,1.61,1.59,1.59,2.43,0,4q-39.31,39.15-78.51,78.44A10.7,10.7,0,0,1,165.48,339.24Zm31.29-61.08a19.78,19.78,0,0,0,20.09-19.62,19.94,19.94,0,1,0-39.87-.33A19.82,19.82,0,0,0,196.77,278.16Zm-62-40.17a19.64,19.64,0,0,0-19.89,19.76,19.93,19.93,0,0,0,19.68,20.09,20.15,20.15,0,0,0,20.17-20A19.91,19.91,0,0,0,134.77,238Z"/><path class="cls-2" d="M218.87,358.2c-.13,1.17,0,2.56-1.15,3-1,.39-1.51-.82-2.13-1.42q-6-5.88-11.86-11.85c-.59-.6-1.83-1.19-1.2-2.15a3.42,3.42,0,0,1,2.45-.9,11.59,11.59,0,0,1,7.78,3C216,350.63,218.4,353.89,218.87,358.2Z"/><path class="cls-2" d="M244.43,380.3a5.23,5.23,0,0,1,5.58,4.87c.23,1.93-.08,4-1.73,4.87-1.17.61-2-1.43-3-2.25a23.53,23.53,0,0,1-2.91-2.91c-.79-.91-2.61-1.65-2.13-2.8C240.89,380.59,242.75,380.28,244.43,380.3Z"/><path class="cls-2" d="M324,318.54a4.72,4.72,0,0,1,1.65.72c1.89,1.81,3.73,3.68,5.48,5.63a1.93,1.93,0,0,1,.19,2.53,1.55,1.55,0,0,1-1.89.31,12.06,12.06,0,0,1-7.05-7.07C321.92,319.5,322.37,318.65,324,318.54Z"/><path class="cls-2" d="M234.56,328.3c3.59.16,10,6.62,10,9.8,0,1.95-1,2.76-2.87,2.08a15.08,15.08,0,0,1-8.79-8.56C232.14,330,232.71,328.47,234.56,328.3Z"/><path class="cls-2" d="M319.12,243.29c0-1,1-1.58,2.85-1.19,3,.65,8.33,5.79,8.93,8.81.32,1.67,0,3-2.08,3C325.62,253.91,319.27,247.54,319.12,243.29Z"/></g></g></g></svg>